<svg id="Capa_1" enable-background="new 0 0 511.994 511.994" height="512" viewBox="0 0 511.994 511.994" width="512" xmlns="http://www.w3.org/2000/svg"><g><g><circle cx="403.074" cy="186.497" fill="#dd636e" r="24.105"/><path d="m449.177 243.049h-29.905v-121.07c0-11.196-9.109-20.306-20.306-20.306s-20.306 9.109-20.306 20.306v21.046h-29.905v-21.046c0-27.686 22.525-50.211 50.211-50.211s50.211 22.525 50.211 50.211z" fill="#eddc54"/><g fill="#eab14d"><path d="m412.448 101.673c-2.366 0-4.628.428-6.741 1.174 7.888 2.789 13.565 10.3 13.565 19.131v121.07h13.482v-121.07c0-11.196-9.109-20.305-20.306-20.305z"/><path d="m405.707 72.233c-2.207-.298-4.454-.466-6.741-.466-27.686 0-50.211 22.525-50.211 50.211v21.046h13.482v-21.046c0-25.399 18.962-46.44 43.47-49.745z"/></g><path d="m473.51 259.775c-.04.349-.07.708-.11 1.067-1.575 15.222-4.197 32.078-8.393 50.012-3.648 15.591-8.473 31.989-14.823 48.805-9.639 25.499-30.394 45.227-56.401 53.411-31.58 9.929-80.086 21.183-137.784 21.183-57.687 0-106.204-11.254-137.784-21.183-25.998-8.184-46.762-27.912-56.391-53.411-19.508-51.607-24.632-99.196-25.27-131.813-.528-27.214 2.073-44.001 2.073-44.001s139.927-44.3 218.129 13.278c9.161 6.749 19.159 12.77 29.656 18.152 79.12 40.542 187.098 44.5 187.098 44.5z" fill="#f4fbff"/><path d="m185.861 428.79c-26.955-4.177-49.952-10.158-67.646-15.72-25.998-8.184-46.762-27.912-56.391-53.411-19.508-51.607-24.632-99.196-25.27-131.813-.528-27.214 2.073-44.001 2.073-44.001s30.693-9.719 71.364-14.135c-.748 9.43-1.445 23.376-1.107 40.761.788 40.372 7.127 99.276 31.281 163.154 8.753 23.186 24.952 42.525 45.696 55.165z" fill="#e4f6ff"/><path d="m473.401 260.841c-1.575 15.222-4.197 32.078-8.393 50.012-2.014.02-4.077.03-6.2.03-14.335 0-30.992-.498-48.686-1.984-72.839-6.111-126.111-25.549-158.319-57.757-31.6-31.6-80.246-38.468-115.484-38.668-36.783-.229-71.384 6.659-96.295 14.544-1.146.369-2.313.638-3.469.827-.528-27.214 2.073-44.001 2.073-44.001s139.927-44.3 218.129 13.278c9.161 6.749 19.159 12.77 29.656 18.152.209.209.429.419.638.628 23.316 23.316 67.317 38.299 127.237 43.323 22.578 1.905 43.412 2.025 59.113 1.616z" fill="#e4f6ff"/><path d="m480.478 284.347c-6.35.229-13.647.379-21.671.379-14.335 0-30.992-.488-48.686-1.974-72.839-6.121-126.111-25.549-158.319-57.757-31.6-31.6-80.246-38.468-115.484-38.678-15.81-.09-31.221 1.127-45.635 3.17h-.03c-19.099 2.712-36.435 6.888-50.63 11.384-12.142 3.848-25.22-2.003-30.374-13.637-1.465-3.299-2.143-6.739-2.143-10.108 0-10.457 6.609-20.316 17.285-23.705 12.291-3.908 26.307-7.516 41.538-10.397h.01c21.492-4.067 45.406-6.669 70.258-6.549 63.938.369 115.963 18.79 150.454 53.271 23.316 23.316 67.317 38.309 127.237 43.333 25.23 2.123 48.287 2.014 64.426 1.455 13.128-.468 24.353 9.351 25.659 22.419v.01c1.435 14.315-9.51 26.886-23.895 27.384z" fill="#f4fbff"/><path d="m90.652 189.487c-19.099 2.712-36.435 6.888-50.63 11.384-12.142 3.848-25.22-2.003-30.374-13.637-1.465-3.299-2.143-6.739-2.143-10.108 0-10.457 6.609-20.316 17.285-23.705 12.291-3.908 26.307-7.516 41.538-10.397-18.899 10.407-21.261 49.613 24.324 46.463z" fill="#e4f6ff"/><circle cx="462.382" cy="186.497" fill="#bed8fb" r="24.105"/></g><path d="m511.845 256.344c-.004-.043-.008-.086-.012-.13-1.688-16.96-16.328-29.794-33.389-29.183-6.039.213-13.435.367-21.765.337v-9.791c1.851.339 3.754.525 5.702.525 17.427 0 31.605-14.178 31.605-31.605s-14.178-31.604-31.605-31.604c-1.947 0-3.851.186-5.702.525v-33.441c0-31.821-25.889-57.71-57.71-57.71-31.822 0-57.71 25.889-57.71 57.71v21.05c0 4.142 3.358 7.5 7.5 7.5h29.9c4.142 0 7.5-3.358 7.5-7.5v-21.05c0-7.058 5.747-12.8 12.81-12.8 7.058 0 12.8 5.742 12.8 12.8v34.136c-2.804-.802-5.728-1.219-8.697-1.219-17.426 0-31.604 14.177-31.604 31.604s14.177 31.604 31.604 31.604c2.969 0 5.893-.417 8.697-1.219v8.439c-56.522-5.125-97.78-19.232-119.417-40.878-35.915-35.904-89.758-55.084-155.717-55.466-10.417-.05-21.066.373-31.668 1.256-4.128.344-7.196 3.968-6.852 8.096s3.972 7.194 8.096 6.852c10.167-.846 20.382-1.247 30.345-1.204 61.92.358 112.126 18.02 145.188 51.072 24.577 24.586 70.193 40.321 131.917 45.501 26.172 2.2 49.962 2.014 65.311 1.472 9.113-.316 16.973 6.518 17.925 15.582.003.038.006.076.01.114.487 4.843-1.008 9.53-4.21 13.197-3.196 3.659-7.627 5.768-12.489 5.937-6.87.249-14.069.375-21.398.375-16.495 0-32.665-.657-48.063-1.954-71.029-5.958-122.722-24.658-153.644-55.58-33.389-33.39-84.093-40.659-120.748-40.877-44.046-.243-80.674 9.223-98.602 14.901-8.507 2.697-17.642-1.398-21.244-9.526-1.001-2.262-1.509-4.64-1.509-7.065 0-7.614 4.847-14.27 12.06-16.562 15.982-5.075 32.993-9.08 50.561-11.904 4.089-.657 6.872-4.505 6.214-8.595s-4.506-6.874-8.595-6.214c-18.296 2.941-36.034 7.119-52.721 12.417-13.469 4.279-22.519 16.68-22.519 30.857 0 4.529.939 8.948 2.793 13.14 4.855 10.952 15.091 17.97 26.367 19.114-1.025 32.652 1.78 89.777 25.644 152.927 9.901 26.217 30.195 46.439 56.134 56.177l4.286 23.11c.669 3.61 3.821 6.134 7.366 6.134.454 0 .914-.042 1.376-.127 4.073-.755 6.762-4.669 6.006-8.742l-2.836-15.291c31.308 8.95 76.342 18.189 128.864 18.189 53.418 0 99.099-9.557 130.462-18.647l-2.921 15.749c-.755 4.073 1.934 7.986 6.006 8.742.462.086.922.127 1.376.127 3.544 0 6.696-2.523 7.366-6.134l4.38-23.616c.009-.046.011-.092.018-.138 11.432-4.559 22.011-11.332 30.899-19.845 2.992-2.865 3.094-7.613.229-10.604-2.865-2.992-7.613-3.094-10.604-.229-8.937 8.559-19.893 15.043-31.682 18.751-30.241 9.509-78.302 20.845-135.53 20.845-57.229 0-105.289-11.335-135.529-20.844-23.919-7.525-42.739-25.35-51.636-48.907-23.584-62.418-25.8-118.677-24.598-149.599 17.703-5.453 51.612-13.835 92.029-13.592 33.845.202 80.443 6.695 110.231 36.483 33.498 33.498 88.338 53.658 162.994 59.92 15.813 1.331 32.406 2.006 49.319 2.006.823 0 1.637-.008 2.456-.011-4.179 22.262-10.253 44.017-18.099 64.782-1.068 2.818-2.286 5.569-3.617 8.178-1.884 3.689-.419 8.207 3.27 10.09 1.092.558 2.257.822 3.404.822 2.729 0 5.36-1.494 6.686-4.091 1.581-3.095 3.021-6.353 4.286-9.689 8.513-22.528 15.014-46.161 19.364-70.334 1.402-.04 2.803-.081 4.181-.131 8.911-.31 17.386-4.341 23.254-11.061 5.848-6.693 8.705-15.594 7.851-24.436zm-32.858-69.847c0 9.156-7.449 16.605-16.605 16.605s-16.604-7.449-16.604-16.605 7.449-16.604 16.604-16.604c9.156 0 16.605 7.448 16.605 16.604zm-80.017-92.32c-15.334 0-27.81 12.471-27.81 27.8v13.55h-14.9v-13.55c0-23.55 19.16-42.71 42.71-42.71s42.71 19.16 42.71 42.71v40.67c-6.672 5.799-10.903 14.337-10.903 23.85s4.231 18.052 10.903 23.851v16.766c-4.793-.147-9.783-.366-14.91-.67v-104.467c0-15.33-12.471-27.8-27.8-27.8zm4.103 108.924c-9.155 0-16.604-7.449-16.604-16.604s7.448-16.604 16.604-16.604c3.092 0 6.093.86 8.697 2.46v28.287c-2.603 1.601-5.605 2.461-8.697 2.461z"/></g></svg>