<?xml version="1.0" encoding="iso-8859-1"?>
<!-- Generator: Adobe Illustrator 19.0.0, SVG Export Plug-In . SVG Version: 6.00 Build 0)  -->
<svg version="1.1" id="Capa_1" xmlns="http://www.w3.org/2000/svg" xmlns:xlink="http://www.w3.org/1999/xlink" x="0px" y="0px"
	 viewBox="0 0 512.001 512.001" style="enable-background:new 0 0 512.001 512.001;" xml:space="preserve">
<g>
	<polygon style="fill:#FF3D53;" points="475.607,204.052 502.001,204.052 502,179.15 256,10 10,179.15 10,204.052 36.392,204.052 
		256,53.051 	"/>
	<path style="fill:#E6E6E6;" d="M475.607,204.052L256,53.051L36.392,204.052v265.95h86.607c-6.6,0-12-5.399-12-12v-42.438
		c-8.247,0-15-6.75-15-15v-15h10v-80.001c0-16.5,13.5-30,30-30h-45v-32h45v-32.766c0-13.879,11.355-25.234,25.234-25.234h189.531
		c13.879,0,25.234,11.356,25.234,25.234v32.766h45v32h-45c16.5,0,30,13.5,30,30v80.001h10v15c0,8.25-6.752,15-15,15v42.438
		c0,6.6-5.4,12-12,12h86.607v-265.95H475.607z"/>
	<rect x="90.999" y="243.56" style="fill:#D6CE5C;" width="45" height="32"/>
	<path style="fill:#BDE5F8;" d="M136,243.564v32h240v-32v-32.766c0-13.879-11.355-25.234-25.234-25.234H161.234
		c-13.879,0-25.234,11.356-25.234,25.234V243.564z"/>
	<g>
		<rect x="375.999" y="243.56" style="fill:#D6CE5C;" width="45" height="32"/>
		<path style="fill:#D6CE5C;" d="M406,305.564c0-16.5-13.5-30-30-30H136c-16.5,0-30,13.5-30,30v80.001h300V305.564L406,305.564z
			 M349.39,310.565c11.046,0,20,8.954,20,20c0,11.045-8.954,19.999-20,19.999s-20-8.954-20-19.999
			C329.39,319.518,338.344,310.565,349.39,310.565L349.39,310.565z M162.609,310.565c11.046,0,20,8.954,20,20
			c0,11.045-8.954,19.999-20,19.999c-11.045,0-20-8.954-20-19.999C142.609,319.518,151.564,310.565,162.609,310.565z"/>
	</g>
	<g>
		<circle style="fill:#FFB52E;" cx="349.389" cy="330.56" r="20"/>
		<circle style="fill:#FFB52E;" cx="162.609" cy="330.56" r="20"/>
	</g>
	<path style="fill:#E9D8AE;" d="M406,385.565H106H96v15c0,8.25,6.753,15,15,15h45.126h199.749H401c8.248,0,15-6.75,15-15v-15H406z"
		/>
	<path style="fill:#E6E6E6;" d="M355.875,415.565H156.126v42.438c0,6.6-5.399,12-12,12h223.749c-6.602,0-12-5.399-12-12
		L355.875,415.565L355.875,415.565z"/>
	<g>
		<path style="fill:#786D7C;" d="M156.126,458.003v-42.438H111v42.438c0,6.6,5.4,12,12,12h21.126
			C150.726,470.002,156.126,464.603,156.126,458.003z"/>
		<path style="fill:#786D7C;" d="M355.875,415.565v42.438c0,6.6,5.398,12,12,12H389c6.6,0,12-5.399,12-12v-42.438H355.875z"/>
	</g>
	<polygon style="fill:#FF3D53;" points="367.875,470.002 144.126,470.002 123,470.002 36.392,470.002 10,470.002 10,502.002 
		502.001,502.002 502.001,470.002 475.607,470.002 389,470.002 	"/>
</g>
<path d="M162.609,300.565c-16.542,0-30,13.458-30,30s13.458,29.999,30,29.999s30-13.457,30-29.999S179.151,300.565,162.609,300.565z
	 M162.609,340.564c-5.514,0-10-4.485-10-9.999s4.486-10,10-10s10,4.486,10,10C172.609,336.078,168.123,340.564,162.609,340.564z"/>
<path d="M349.39,300.565c-16.542,0-30,13.458-30,30s13.458,29.999,30,29.999s30-13.457,30-29.999S365.932,300.565,349.39,300.565z
	 M349.39,340.564c-5.514,0-10-4.485-10-9.999s4.486-10,10-10s10,4.486,10,10C359.39,336.078,354.904,340.564,349.39,340.564z"/>
<path d="M295.298,301.461h-47.625c-5.523,0-10,4.477-10,10s4.477,10,10,10h47.625c5.523,0,10-4.477,10-10
	S300.821,301.461,295.298,301.461z"/>
<path d="M216.701,321.464h0.256c5.523,0,10-4.477,10-10s-4.477-10-10-10h-0.256c-5.523,0-10,4.477-10,10
	S211.178,321.464,216.701,321.464z"/>
<path d="M295.298,339.667h-0.256c-5.523,0-10,4.477-10,10s4.477,10,10,10h0.256c5.523,0,10-4.477,10-10
	C305.298,344.144,300.821,339.667,295.298,339.667z"/>
<path d="M264.326,339.664h-47.625c-5.523,0-10,4.477-10,10s4.477,10,10,10h47.625c5.523,0,10-4.477,10-10
	S269.849,339.664,264.326,339.664z"/>
<path d="M502.001,460.002h-16.394v-245.95h16.394c2.652,0,5.196-1.054,7.071-2.929c1.876-1.876,2.929-4.419,2.929-7.071L512,179.253
	c0-0.01,0-0.019,0-0.028v-0.075c0-0.094-0.012-0.185-0.014-0.278c-0.006-0.222-0.012-0.444-0.034-0.665
	c-0.015-0.167-0.043-0.329-0.067-0.494c-0.023-0.153-0.041-0.308-0.07-0.46c-0.036-0.189-0.084-0.374-0.131-0.56
	c-0.032-0.126-0.061-0.254-0.098-0.379c-0.055-0.185-0.12-0.366-0.185-0.547c-0.045-0.126-0.087-0.251-0.137-0.375
	c-0.067-0.165-0.143-0.325-0.218-0.485c-0.064-0.137-0.126-0.275-0.197-0.41c-0.072-0.137-0.152-0.27-0.23-0.403
	c-0.088-0.15-0.175-0.301-0.272-0.447c-0.075-0.114-0.157-0.222-0.236-0.333c-0.111-0.154-0.222-0.308-0.342-0.457
	c-0.083-0.102-0.173-0.199-0.26-0.298c-0.126-0.143-0.25-0.287-0.385-0.423c-0.109-0.111-0.225-0.213-0.339-0.319
	c-0.122-0.113-0.241-0.228-0.369-0.335c-0.167-0.14-0.343-0.268-0.519-0.397c-0.078-0.057-0.15-0.121-0.23-0.176l-0.065-0.045
	c-0.006-0.004-0.011-0.008-0.017-0.012L261.666,1.76c-3.413-2.347-7.919-2.347-11.332,0L4.414,170.854
	c-0.004,0.003-0.009,0.006-0.013,0.009l-0.067,0.046c-0.084,0.058-0.159,0.123-0.24,0.184c-0.172,0.126-0.345,0.252-0.508,0.389
	c-0.132,0.11-0.252,0.227-0.377,0.342c-0.111,0.104-0.226,0.204-0.332,0.312c-0.137,0.138-0.263,0.284-0.39,0.429
	c-0.085,0.097-0.173,0.191-0.254,0.292c-0.122,0.151-0.234,0.307-0.347,0.464c-0.078,0.108-0.157,0.214-0.231,0.325
	c-0.097,0.148-0.186,0.3-0.275,0.453c-0.077,0.131-0.156,0.262-0.228,0.397c-0.071,0.136-0.135,0.276-0.2,0.415
	c-0.074,0.158-0.149,0.316-0.215,0.479c-0.051,0.126-0.094,0.253-0.14,0.381c-0.064,0.179-0.129,0.358-0.183,0.542
	c-0.038,0.127-0.067,0.256-0.099,0.384c-0.046,0.184-0.094,0.367-0.13,0.554c-0.03,0.154-0.048,0.31-0.071,0.466
	c-0.024,0.163-0.051,0.323-0.066,0.489c-0.022,0.222-0.027,0.444-0.034,0.667C0.012,178.966,0,179.056,0,179.149v0.074
	c0,0.01,0,0.02,0,0.029v24.799c0,5.523,4.477,10,10,10h16.393v245.95H10c-5.523,0-10,4.477-10,10v32c0,5.523,4.477,10,10,10h492.001
	c5.523,0,10-4.477,10-10v-32C512.001,464.479,507.524,460.002,502.001,460.002z M20,184.41L256,22.136L492,184.41l0.001,9.642
	h-13.287L261.666,44.81c-3.413-2.347-7.919-2.347-11.332,0L33.286,194.052H20V184.41z M46.392,209.312L256,65.186l209.607,144.125
	v250.69h-54.702c0.06-0.659,0.095-1.325,0.095-2v-34.532c8.82-3.866,15-12.676,15-22.906v-15c0-5.523-4.477-10-10-10v-70.001
	c0-7.283-1.966-14.112-5.381-20H421c5.523,0,10-4.477,10-10v-32c0-5.523-4.477-10-10-10h-35v-22.766
	c0-19.428-15.806-35.234-35.234-35.234H161.234c-19.428,0-35.234,15.806-35.234,35.234v22.766H91c-5.523,0-10,4.477-10,10v32
	c0,5.523,4.477,10,10,10h10.381c-3.415,5.888-5.381,12.717-5.381,20v70.001c-5.523,0-10,4.477-10,10v15
	c0,10.23,6.18,19.041,15,22.906v34.532c0,0.674,0.035,1.34,0.095,2H46.392V209.312z M386,265.564v-12h25v12H386z M366,265.564
	L366,265.564H146l0,0v-54.766c0-8.4,6.834-15.234,15.234-15.234h189.531c8.4,0,15.234,6.834,15.234,15.234v54.766H366z M126,265.564
	h-25v-12h25V265.564z M116,305.564c0-11.028,8.972-20,20-20h240c11.028,0,20,8.972,20,20v70.001H116
	C116,375.565,116,305.564,116,305.564z M406,395.565v5c0,2.71-2.29,5-5,5l0,0H111l0,0c-2.71,0-5-2.29-5-5v-5H406z M121,458.003
	v-32.438h25.126v32.438c0,1.084-0.916,2-2,2H123C121.916,460.002,121,459.087,121,458.003z M166.126,458.003v-32.438h179.749v32.438
	c0,0.674,0.035,1.34,0.095,2H166.031C166.09,459.343,166.126,458.677,166.126,458.003z M365.875,458.003v-32.438H391v32.438
	c0,1.084-0.916,2-2,2h-21.125C366.791,460.002,365.875,459.087,365.875,458.003z M492.001,492.002H20v-12l0,0l0,0l0,0h472.001l0,0
	l0,0l0,0V492.002z"/>
<g>
</g>
<g>
</g>
<g>
</g>
<g>
</g>
<g>
</g>
<g>
</g>
<g>
</g>
<g>
</g>
<g>
</g>
<g>
</g>
<g>
</g>
<g>
</g>
<g>
</g>
<g>
</g>
<g>
</g>
</svg>
