<svg id="Layer_3" enable-background="new 0 0 64 64" height="512" viewBox="0 0 64 64" width="512" xmlns="http://www.w3.org/2000/svg"><path d="m46 55h4v7h-4z" fill="#8892a0"/><path d="m62 51h-20v4h20" fill="#c18e59"/><path d="m62 10h-30v-8h30" fill="#8892a0"/><path d="m34 10h4v52h-4z" fill="#4d5d7a"/><path d="m18 14c2.209 0 4-1.791 4-4s-1.791-4-4-4c-.75 0-1.443.219-2.043.578-.217-2.561-2.34-4.578-4.957-4.578-2.761 0-5 2.239-5 5 0 .43.071.841.173 1.239-.36-.154-.756-.239-1.173-.239-1.657 0-3 1.343-3 3s1.343 3 3 3z" fill="#a1cdfb"/><path d="m18 39-.447-.895-4 2 .894 1.79 2.553-1.277v3.382h2v-3.382l2.553 1.277.894-1.79-4-2z" fill="#976947"/><path d="m10 44h16v4h-16z" fill="#c18e59"/><path d="m24 48-1 10h-10l-1-10" fill="#976947"/><g fill="#78b75b"><path d="m14.372 38.343 2.628.657-.657-2.628c-.224-.898-.689-1.718-1.343-2.372-.654-.654-1.474-1.119-2.372-1.343l-2.628-.657.657 2.628c.224.898.689 1.718 1.343 2.372.654.654 1.474 1.119 2.372 1.343z"/><path d="m21.628 38.343-2.628.657.657-2.628c.224-.898.689-1.718 1.343-2.372.654-.654 1.474-1.119 2.372-1.343l2.628-.657-.657 2.628c-.224.898-.689 1.718-1.343 2.372-.654.654-1.474 1.119-2.372 1.343z"/><path d="m17.342 37.683.658 1.317.658-1.317c.883-1.764 1.342-3.71 1.342-5.683 0-1.973-.459-3.919-1.342-5.683l-.658-1.317-.658 1.317c-.883 1.764-1.342 3.71-1.342 5.683 0 1.973.459 3.919 1.342 5.683z"/></g><path d="m2 60h60v2h-60z" fill="#c18e59"/></svg>