<svg id="Layer_1" enable-background="new 0 0 512 512" height="512" viewBox="0 0 512 512" width="512" xmlns="http://www.w3.org/2000/svg"><g><path d="m78.916 435.599h75.917v32h-75.917z" fill="#f9d11f"/><path d="m357.168 435.599h75.917v32h-75.917z" fill="#f9d11f"/><g><path d="m256.001 107.29-95.99 143.989-11.67 17.5c0 14.87-12.06 26.92-26.92 26.92-14.87 0-26.92-12.05-26.92-26.92 0-5.91.32-11.75.94-17.5 8.67-80.51 76.52-143.289 159.17-143.979.46-.01.93-.01 1.39-.01z" fill="#ff4656"/><path d="m160.011 251.28-11.67 17.5c0 14.87-12.06 26.92-26.92 26.92-14.87 0-26.92-12.05-26.92-26.92 0-5.91.32-11.75.94-17.5z" fill="#d93c49"/><path d="m417.501 268.78c0 14.87-12.05 26.92-26.92 26.92-14.86 0-26.92-12.05-26.92-26.92l-11.66-17.5h-.01l-95.99-143.989c.46 0 .93 0 1.39.01.44 0 .88.01 1.32.02.32 0 .64.01.95.02 87.5 1.939 157.84 73.469 157.84 161.439z" fill="#e7f3f7"/><path d="m417.501 268.78c0 14.87-12.05 26.92-26.92 26.92-14.86 0-26.92-12.05-26.92-26.92l-11.66-17.5c60.98 0 18.61-140.889-92.34-143.939 87.5 1.939 157.84 73.469 157.84 161.439z" fill="#cbe6ef"/><path d="m256.701 107.3-48.62 143.979-5.91 17.5c0 14.87-12.05 26.92-26.92 26.92-14.86 0-26.91-12.05-26.91-26.92 0-5.91.21-11.75.63-17.5 5.78-80.28 50.84-142.93 105.64-143.979.23 0 .46-.01.69 0 .24-.01.47-.01.7-.01s.46 0 .7.01z" fill="#e7f3f7"/><path d="m208.081 251.28-5.91 17.5c0 14.87-12.05 26.92-26.92 26.92-14.86 0-26.91-12.05-26.91-26.92 0-5.91.21-11.75.63-17.5z" fill="#cbe6ef"/><path d="m363.661 268.78c0 14.87-12.05 26.92-26.91 26.92-14.87 0-26.92-12.05-26.92-26.92l-5.83-17.5-48-143.989c.23 0 .46 0 .7.01h.23c.15-.01.31 0 .46 0 54.39 1.04 99.18 62.75 105.5 142.159.51 6.33.77 12.78.77 19.32z" fill="#ff4656"/><path d="m363.661 268.78c0 14.87-12.05 26.92-26.91 26.92-14.87 0-26.92-12.05-26.92-26.92l-5.83-17.5h48c4.09 0 7.72-.63 10.89-1.82.51 6.33.77 12.78.77 19.32z" fill="#d93c49"/><path d="m256.001 107.29v161.49c0 14.87-12.05 26.92-26.92 26.92-14.86 0-26.91-12.05-26.91-26.92 0-5.91.11-11.75.31-17.5 2.88-80.28 25.34-142.93 52.82-143.979.24-.011.47-.011.7-.011z" fill="#14bb87"/><path d="m256.001 251.28v17.5c0 14.87-12.05 26.92-26.92 26.92-14.86 0-26.91-12.05-26.91-26.92 0-5.91.11-11.75.31-17.5z" fill="#13a279"/><path d="m309.831 268.78c0 14.87-12.05 26.92-26.91 26.92-14.87 0-26.92-12.05-26.92-26.92v-161.49c.23 0 .46 0 .7.01 27.48 1.05 49.94 63.7 52.82 143.979.2 5.751.31 11.591.31 17.501z" fill="#e7f3f7"/><path d="m309.831 268.78c0 14.87-12.05 26.92-26.91 26.92-14.87 0-26.92-12.05-26.92-26.92v-17.5h53.52c.2 5.75.31 11.59.31 17.5z" fill="#cbe6ef"/></g><g><g><path d="m67.093 51.657c0 8.29-6.72 15-15 15-2.53 0-4.91-.63-7-1.73-4.76-2.51-8-7.51-8-13.27 0-5.75 3.24-10.75 8-13.27 2.09-1.1 4.47-1.73 7-1.73 8.28 0 15 6.72 15 15z" fill="#f9d11f"/><path d="m67.093 51.657c0 8.29-6.72 15-15 15-2.53 0-4.91-.63-7-1.73 4.76-2.51 8-7.51 8-13.27 0-5.75-3.24-10.75-8-13.27 2.09-1.1 4.47-1.73 7-1.73 8.28 0 15 6.72 15 15z" fill="#ffa402"/></g><g><path d="m504.5 54.504c0 8.35-6.77 15.12-15.12 15.12h-77.12c-8.07 0-15.06-4.6-18.5-11.33-.8-1.56-1.41-3.24-1.78-5-.33-1.43-.49-2.92-.49-4.44 0-11.46 9.3-20.76 20.77-20.76 2.6 0 5.07.5 7.37 1.37 3.92-12.62 15.68-21.79 29.59-21.79h.4c2.33.03 4.6.32 6.78.85 13.64 3.22 23.79 15.49 23.79 30.12 0 1.38-.1 2.74-.28 4.06 2.6-2.07 5.88-3.33 9.47-3.33 8.35 0 15.12 6.77 15.12 15.13z" fill="#e7f3f7"/><path d="m504.5 54.504c0 8.35-6.77 15.12-15.12 15.12h-77.12c-8.07 0-15.06-4.6-18.5-11.33-.8-1.56-1.41-3.24-1.78-5h46.54c14.34 0 25.96-11.63 25.96-25.95 0-7.41-3.1-14.09-8.08-18.82 13.64 3.22 23.79 15.49 23.79 30.12 0 1.38-.1 2.74-.28 4.06 2.6-2.07 5.88-3.33 9.47-3.33 8.35 0 15.12 6.77 15.12 15.13z" fill="#cbe6ef"/></g></g></g><g><path d="m412.263 77.14h7.54c4.143 0 7.5-3.358 7.5-7.5s-3.357-7.5-7.5-7.5h-7.54c-7.313 0-13.264-5.943-13.264-13.247s5.95-13.247 13.264-13.247c1.585 0 3.169.296 4.707.881 1.933.736 4.087.639 5.95-.267 1.861-.907 3.266-2.542 3.879-4.52 3.062-9.865 12.072-16.493 22.423-16.493 12.941 0 23.471 10.518 23.471 23.446 0 .996-.068 2.004-.21 3.08-.399 3.037 1.088 6.011 3.758 7.514 2.669 1.502 5.984 1.23 8.373-.687.954-.767 2.557-1.68 4.765-1.68 4.203 0 7.622 3.414 7.622 7.61s-3.419 7.61-7.622 7.61h-34.616c-4.143 0-7.5 3.358-7.5 7.5s3.357 7.5 7.5 7.5h34.616c12.473 0 22.621-10.143 22.621-22.609s-10.148-22.609-22.622-22.609c-.757 0-1.513.039-2.263.115-3.165-18.036-18.953-31.787-37.893-31.787-14.573 0-27.529 8.026-34.072 20.548-.958-.1-1.921-.15-2.887-.15-15.585 0-28.264 12.671-28.264 28.246s12.679 28.246 28.264 28.246z"/><path d="m467.853 219.675c-4.341-4.141-10.214-6.693-16.675-6.693-4.143 0-7.5 3.358-7.5 7.5s3.357 7.5 7.5 7.5c5.059 0 9.175 4.11 9.175 9.162 0 4.142 3.357 7.5 7.5 7.5s7.5-3.358 7.5-7.5c0-5.052 4.116-9.162 9.176-9.162 4.143 0 7.5-3.358 7.5-7.5s-3.357-7.5-7.5-7.5c-6.462 0-12.335 2.552-16.676 6.693z"/><path d="m189.324 45.028c5.06 0 9.176 4.11 9.176 9.163 0 4.142 3.357 7.5 7.5 7.5s7.5-3.358 7.5-7.5c0-5.052 4.116-9.163 9.176-9.163 4.143 0 7.5-3.358 7.5-7.5s-3.357-7.5-7.5-7.5c-6.462 0-12.334 2.551-16.676 6.693-4.342-4.141-10.214-6.693-16.676-6.693-4.143 0-7.5 3.358-7.5 7.5s3.358 7.5 7.5 7.5z"/><path d="m27.845 180.418c5.06 0 9.176 4.11 9.176 9.163 0 4.142 3.357 7.5 7.5 7.5s7.5-3.358 7.5-7.5c0-5.052 4.116-9.163 9.175-9.163 4.143 0 7.5-3.358 7.5-7.5s-3.357-7.5-7.5-7.5c-6.461 0-12.333 2.551-16.675 6.693-4.342-4.141-10.214-6.693-16.676-6.693-4.143 0-7.5 3.358-7.5 7.5s3.357 7.5 7.5 7.5z"/><path d="m504.5 497.001h-63.916v-151.834c0-4.142-3.357-7.5-7.5-7.5s-7.5 3.358-7.5 7.5v82.938h-68.416c-4.143 0-7.5 3.358-7.5 7.5v61.397h-48.524l-34.209-88.604h95.233c4.143 0 7.5-3.358 7.5-7.5s-3.357-7.5-7.5-7.5h-98.668v-96.205c5.531 3.793 12.218 6.019 19.416 6.019 10.888 0 20.605-5.088 26.916-13.005 6.311 7.917 16.028 13.005 26.916 13.005 10.889 0 20.606-5.088 26.917-13.005 6.311 7.917 16.028 13.005 26.916 13.005 18.977 0 34.416-15.438 34.416-34.414 0-90.666-71.779-164.873-161.497-168.811v-16.938c0-4.142-3.357-7.5-7.5-7.5s-7.5 3.358-7.5 7.5v16.937c-89.718 3.938-161.497 78.146-161.497 168.811 0 18.976 15.439 34.414 34.416 34.414 10.888 0 20.605-5.088 26.916-13.005 6.311 7.917 16.028 13.005 26.917 13.005 10.888 0 20.605-5.088 26.916-13.005 6.311 7.917 16.028 13.005 26.916 13.005 7.198 0 13.885-2.225 19.416-6.019v96.205h-98.668c-4.143 0-7.5 3.358-7.5 7.5s3.357 7.5 7.5 7.5h95.233l-34.209 88.604h-48.524v-61.397c0-4.142-3.357-7.5-7.5-7.5h-68.416v-82.938c0-4.142-3.357-7.5-7.5-7.5s-7.5 3.358-7.5 7.5v151.834h-63.916c-4.143 0-7.5 3.358-7.5 7.5s3.357 7.5 7.5 7.5h497c4.143 0 7.5-3.358 7.5-7.5s-3.357-7.499-7.5-7.499zm-357.168 0h-60.916v-21.899h60.916zm0-36.898h-60.916v-16.999h60.916zm262.665-191.305c0 10.705-8.71 19.415-19.416 19.415s-19.416-8.71-19.416-19.415c0-44.585-11.659-86.615-32.829-118.35-5.282-7.918-11.006-14.965-17.088-21.111 52.385 24.604 88.749 77.862 88.749 139.461zm-84.14-110.027c19.544 29.297 30.308 68.372 30.308 110.027 0 10.705-8.71 19.415-19.417 19.415-10.706 0-19.416-8.71-19.416-19.415 0-56.012-10.052-114.422-29.141-145.77 13.928 7.328 26.777 19.419 37.666 35.743zm-185.022 110.027c0 10.705-8.71 19.415-19.416 19.415s-19.416-8.71-19.416-19.415c0-61.599 36.364-114.857 88.75-139.461-6.082 6.146-11.806 13.193-17.088 21.111-21.171 31.734-32.83 73.765-32.83 118.35zm53.833 0c0 10.705-8.71 19.415-19.416 19.415-10.707 0-19.417-8.71-19.417-19.415 0-41.655 10.764-80.73 30.308-110.027 10.89-16.324 23.738-28.415 37.667-35.744-19.091 31.348-29.142 89.758-29.142 145.771zm34.416 19.415c-10.706 0-19.416-8.71-19.416-19.415 0-42.366 5.457-82.077 15.365-111.818 6.752-20.267 15.141-34.255 23.467-39.668v103.501c0 4.142 3.357 7.5 7.5 7.5s7.5-3.358 7.5-7.5v-103.501c8.326 5.413 16.715 19.401 23.467 39.668 9.908 29.741 15.365 69.452 15.365 111.818 0 10.705-8.71 19.415-19.416 19.415s-19.416-8.71-19.416-19.415v-12.898c0-4.142-3.357-7.5-7.5-7.5s-7.5 3.358-7.5 7.5v12.898c0 10.705-8.71 19.415-19.416 19.415zm-2.149 208.788 29.065-75.279 29.065 75.279zm198.649 0h-60.916v-21.899h60.916zm0-36.898h-60.916v-16.999h60.916z"/><g><path d="m52.096 74.18c12.407 0 22.5-10.092 22.5-22.497s-10.093-22.498-22.5-22.498-22.5 10.092-22.5 22.498 10.093 22.497 22.5 22.497zm0-29.996c4.136 0 7.5 3.364 7.5 7.5s-3.364 7.499-7.5 7.499-7.5-3.364-7.5-7.499 3.364-7.5 7.5-7.5z"/><circle cx="7.5" cy="51.685" r="7.5"/><circle cx="96.69" cy="51.683" r="7.5"/><circle cx="52.093" cy="7.499" r="7.5"/><circle cx="52.095" cy="96.678" r="7.5"/><circle cx="20.707" cy="20.009" r="7.499"/><path d="m89.078 88.369c2.929-2.929 2.929-7.677 0-10.605s-7.678-2.928-10.607 0c-2.929 2.929-2.929 7.677 0 10.605 2.929 2.929 7.678 2.929 10.607 0z"/><circle cx="83.487" cy="20.293" r="7.5"/><circle cx="20.421" cy="83.353" r="7.5"/></g></g></svg>