<svg height="512" viewBox="0 0 512 512" width="512" xmlns="http://www.w3.org/2000/svg"><g id="Filledotuline"><path d="m456 112v376h-400v-376l88-64 112 80 112-80z" fill="#e4e4e3"/><path d="m88 408h48l16 16v32h-64z" fill="#0093b9"/><path d="m456 112v32.53l-88-64.53-112 80-112-80-88 64.53v-32.53l88-64 112 80 112-80z" fill="#cacac9"/><path d="m104 488a24 24 0 1 0 -10.926-45.366 32 32 0 1 0 -29.074 45.366z" fill="#85bb40"/><path d="m88 376v-120a24 24 0 0 1 24-24 24 24 0 0 1 24 24v120z" fill="#eaae48"/><path d="m168 232h56v64h-56z" fill="#0093b9"/><circle cx="144" cy="152" fill="#0093b9" r="32"/><path d="m488 112-120-88-112 80-112-80-120 88v40l120-88 112 80 112-80 120 88z" fill="#eaae48"/><path d="m424 408h-48l-16 16v32h64z" fill="#0093b9"/><path d="m408 488a24 24 0 1 1 10.926-45.366 32 32 0 1 1 29.074 45.366z" fill="#85bb40"/><path d="m424 376v-120a24 24 0 0 0 -24-24 24 24 0 0 0 -24 24v120z" fill="#eaae48"/><path d="m288 232h56v64h-56z" fill="#0093b9"/><circle cx="368" cy="152" fill="#0093b9" r="32"/><path d="m96 304v-48a16 16 0 0 1 32 0v48h16v-48a32 32 0 0 0 -64 0v48z"/><path d="m224 224h-56a8 8 0 0 0 -8 8v64a8 8 0 0 0 8 8h56a8 8 0 0 0 8-8v-64a8 8 0 0 0 -8-8zm-8 16v16h-40v-16zm-40 48v-16h40v16z"/><path d="m80 192h16v16h-16z"/><path d="m216 192h16v16h-16z"/><path d="m144 192a40 40 0 1 0 -40-40 40.045 40.045 0 0 0 40 40zm-22.624-32h14.624v14.624a24.119 24.119 0 0 1 -14.624-14.624zm30.624 14.624v-14.624h14.624a24.119 24.119 0 0 1 -14.624 14.624zm14.624-30.624h-14.624v-14.624a24.119 24.119 0 0 1 14.624 14.624zm-30.624-14.624v14.624h-14.624a24.119 24.119 0 0 1 14.624-14.624z"/><path d="m464 400v-255.68l19.27 14.131a8 8 0 0 0 12.73-6.451v-40a8 8 0 0 0 -3.27-6.451l-120-88a8 8 0 0 0 -9.38-.059l-107.35 76.679-107.35-76.679a8 8 0 0 0 -9.38.059l-120 88a8 8 0 0 0 -3.27 6.451v40a8 8 0 0 0 12.73 6.451l19.27-14.131v255.68h16v-16h85.333l26.667 20v76h-44.3a31.982 31.982 0 0 0 -35.073-47.134 39.988 39.988 0 1 0 -64.605 47.134h-16.022v16h480v-16h-16.022a39.987 39.987 0 1 0 -64.6-47.134 31.977 31.977 0 0 0 -35.073 47.134h-44.305v-76l26.667-20h85.333v16zm-16-80h-88a8 8 0 0 0 -4.8 1.6l-32 24a8 8 0 0 0 -3.2 6.4v64h-56v-267.883l103.938-74.242 80.062 58.712zm-80 16h16v32h-16zm-48 112h-56v-16h56zm-128-16h56v16h-56zm-160-315.946 112.062-82.179 107.288 76.635a8 8 0 0 0 9.3 0l107.288-76.635 112.062 82.179v20.159l-107.27-78.664a8 8 0 0 0 -9.38-.059l-107.35 76.679-107.35-76.679a8 8 0 0 0 -9.38.059l-107.27 78.664zm112.062-42.179 103.938 74.242v267.883h-56v-64a8 8 0 0 0 -3.2-6.4l-32-24a8 8 0 0 0 -4.8-1.6h-88v-187.413zm-.062 262.125v32h-16v-32zm-80 32v-32h16v32zm32-32h16v32h-16zm64 36v-28l16 12v28zm32 92h56v16h-56zm-128 16a24 24 0 1 1 21.808-34.02 8 8 0 0 0 10.915 3.773 15.81 15.81 0 0 1 7.277-1.753 16 16 0 0 1 0 32zm328-16a16.019 16.019 0 0 1 16-16 15.81 15.81 0 0 1 7.277 1.753 8 8 0 0 0 10.915-3.773 24 24 0 1 1 21.808 34.02h-40a16.019 16.019 0 0 1 -16-16zm-128 16v-16h56v16zm72-124 16-12v28l-16 12zm64 12v-32h16v32zm32 0v-32h16v32z"/><path d="m400 224a32.036 32.036 0 0 0 -32 32v48h16v-48a16 16 0 0 1 32 0v48h16v-48a32.036 32.036 0 0 0 -32-32z"/><path d="m344 224h-56a8 8 0 0 0 -8 8v64a8 8 0 0 0 8 8h56a8 8 0 0 0 8-8v-64a8 8 0 0 0 -8-8zm-8 16v16h-40v-16zm-40 48v-16h40v16z"/><path d="m416 192h16v16h-16z"/><path d="m280 192h16v16h-16z"/><path d="m328 152a40 40 0 1 0 40-40 40.045 40.045 0 0 0 -40 40zm17.376 8h14.624v14.624a24.119 24.119 0 0 1 -14.624-14.624zm30.624 14.624v-14.624h14.624a24.119 24.119 0 0 1 -14.624 14.624zm14.624-30.624h-14.624v-14.624a24.119 24.119 0 0 1 14.624 14.624zm-30.624-14.624v14.624h-14.624a24.119 24.119 0 0 1 14.624-14.624z"/><path d="m160 456v-32a8 8 0 0 0 -2.343-5.657l-16-16a8 8 0 0 0 -5.657-2.343h-48v16h44.687l11.313 11.313v28.687z"/><path d="m370.343 402.343-16 16a8 8 0 0 0 -2.343 5.657v32h16v-28.687l11.313-11.313h44.687v-16h-48a8 8 0 0 0 -5.657 2.343z"/></g></svg>