<svg id="Capa_1" enable-background="new 0 0 512 512" height="512" viewBox="0 0 512 512" width="512" xmlns="http://www.w3.org/2000/svg"><g><path d="m509.59 220.8-95.22 83.67c-91.3 80.22-227.29 82.39-321.11 5.13l-92.28-76c3.27-37.82 14.77-73.28 32.7-104.6 44.12-77.07 127.16-129 222.32-129s178.2 51.93 222.32 129c12.98 22.67 22.59 47.52 28.15 73.86 1.25 5.91 2.3 11.89 3.12 17.94z" fill="#fff9bb"/><g><path d="m509.59 220.8-95.22 83.67c-91.3 80.22-227.29 82.39-321.11 5.13l-92.29-76c3.28-37.82 14.78-73.28 32.71-104.6 44.12 77.07 127.16 129 222.32 129s178.2-51.93 222.32-129c15.89 27.76 26.74 58.77 31.27 91.8z" fill="#fff297"/></g><g><path d="m22.527 283.037h162.883c-9.827-11.903-21.326-23.494-29.958-36.277-5.858-8.675-14.467-16.348-25.877-10.676-4.716 2.344-8.924 6.834-14.165 6.314-5.253-.52-8.474-5.743-11.917-9.745-2.912-3.384-8.309-8.168-13.053-8.436-5.334-.301-10.838 5.228-14.982 8.019-11.341 7.639-22.683 15.277-34.024 22.916-6.302 4.245-12.605 8.489-18.907 12.734v15.151z" fill="#a44e3e"/><path d="m338.473 219.965c5.858-15.083 14.467-28.424 25.877-18.562 4.716 4.076 8.924 11.881 14.165 10.978 5.253-.905 8.474-9.985 11.917-16.942 2.912-5.884 8.31-14.201 13.053-14.667 5.334-.524 10.838 9.089 14.982 13.942 11.341 13.28 22.683 26.561 34.024 39.841 7.971 9.334 15.942 18.667 23.913 28.001 3.935 4.608 7.987 9.006 11.908 13.597.895 1.048 4.384 6.884 5.179 6.884-.866 0-184.977 0-184.977 0 9.828-20.695 21.326-40.847 29.959-63.072z" fill="#913d31"/><path d="m38.91 272.2h409.81v104.03h-409.81z" fill="#dff7fd"/><path d="m256 270.2h192.72v106.03h-192.72z" fill="#c5f2f9"/><path d="m448.72 265.2v16.43c-2.57 2.51-5.65 4.44-9.14 5.53-7.97 2.51-16.6.57-24.94 1.02-8.35.46-16.09.31-17.44 8.56-.78 4.76-4.37 8.95-8.96 10.47-4.58 1.51-9.96.27-13.42-3.1-3.14-3.04-4.56-7.38-6.7-11.19-2.13-3.81-5.71-7.48-10.08-7.28-3.92.19-7.02 3.48-8.77 7-1.75 3.51-2.61 7.43-4.57 10.83-1.96 3.41-5.54 6.36-9.44 5.84-3.62-.48-6.22-3.74-7.83-7.02s-2.71-6.92-5.19-9.59c-2.49-2.68-6.7-5.1-9.39-2.62-4.48-.35-7.13 4.85-8.22 9.21-1.1 4.36-2.71 9.66-7.12 10.55-6.6 1.33-10.14-8.59-16.71-10.06-4.01-.9-8.16 1.8-10.1 5.41-1.94 3.62-2.1 7.92-1.84 12.01.33 5.32 1.29 10.66.6 15.95-.69 5.28-3.47 10.71-8.4 12.73-1.63.66-3.35.88-5.06.74-4.24-.35-9.645-1.161-12.185-4.721-3.55-4.98-3.236-10.118-2.887-19.062-.046-6.698.452-12.437-.188-18.517-.48-4.66-2.96-10.2-7.64-10.28-7.54-.13-8.68 13.2-16.12 14.43-10.79 1.79-9.44-14.39-11.16-20.53-2.97-10.59-12.63-8.88-16.9.14-2.54 5.39-7.64 11.38-14.31 7.9-1.89-.99-3.36-2.61-5-3.96-1.65-1.35-3.69-2.49-5.81-2.21-6.14.81-5.62 17.41-6.62 21.85-1.13 5.04-4.27 10.26-9.34 11.24-6.16 1.19-11.64-4.51-13.81-10.4s-2.43-12.44-5.29-18.03-10.03-9.92-15.38-6.63c-6.26 3.84-5.98 15.37-13.2 16.74-4.97.95-8.87-4.05-11.39-8.44-2.51-4.38-6.16-9.47-11.18-8.85-7.54.92-8.07 12.97-14.95 16.19-4.17 1.95-9.2-.17-12.59-3.29s-5.81-7.18-9.25-10.25c-.6-.54-1.23-1.03-1.89-1.49v-23.25z" fill="#63dbfa"/><path d="m448.72 265.2v16.43c-2.57 2.51-5.65 4.44-9.14 5.53-7.97 2.51-16.6.57-24.94 1.02-8.35.46-16.09.31-17.44 8.56-.78 4.76-4.37 8.95-8.96 10.47-4.58 1.51-9.96.27-13.42-3.1-3.14-3.04-4.56-7.38-6.7-11.19-2.13-3.81-5.71-7.48-10.08-7.28-3.92.19-7.02 3.48-8.77 7-1.75 3.51-2.61 7.43-4.57 10.83-1.96 3.41-5.54 6.36-9.44 5.84-3.62-.48-6.22-3.74-7.83-7.02s-2.71-6.92-5.19-9.59c-2.49-2.68-6.7-5.1-9.39-2.62-4.48-.35-7.13 4.85-8.22 9.21-1.1 4.36-2.71 9.66-7.12 10.55-6.6 1.33-10.14-8.59-16.71-10.06-4.01-.9-8.16 1.8-10.1 5.41-1.94 3.62-2.1 7.92-1.84 12.01.33 5.32 1.29 10.66.6 15.95-.69 5.28-3.47 10.71-8.4 12.73-1.63.66-3.35.88-5.06.74v-81.42z" fill="#3dcaea"/><path d="m114.78 410.23h-14.36c-24.27-9.2-47.92-20.63-70.63-34.29-9.2-17.3-16.46-35.78-21.52-55.16-1.8-6.9-3.32-13.92-4.54-21.04-1.46-8.42-2.5-16.99-3.1-25.68-.42-5.96-.63-11.99-.63-18.06 0-3.71.08-7.4.24-11.07h35.35c7.67 0 19.36 4.83 22.88 11.65 3.52 6.81 6.6 14.74 13.52 18.06 6.66 3.2 14.48.95 21.84.27.07 0 .14-.01.22-.01 9.65-.81 17.93 6.86 18.14 16.55z" fill="#b15848"/><path d="m97.97 409.29c-23.41-9.03-46.23-20.15-68.18-33.35-9.2-17.3-16.46-35.78-21.52-55.16-1.8-6.9-3.32-13.92-4.54-21.04-.21-1.23-.42-2.47-.61-3.7h40.17c5.3 0 13.37 3.34 15.8 8.05 2.43 4.7 4.56 10.18 9.34 12.47 4.6 2.21 10 .66 15.08.19.05 0 .11 0 .16-.01 6.66-.55 12.38 4.74 12.53 11.43z" fill="#a44e3e"/><path d="m512 256c0 22.38-2.87 44.09-8.27 64.78-4.99 19.12-12.13 37.38-21.17 54.48l-.56.33c-22.89 13.82-46.73 25.36-71.21 34.64h-38.32l2.6-118.78c.21-9.69 8.49-17.36 18.14-16.55.07 0 .15.01.22.01 7.36.68 15.18 2.93 21.84-.27 6.91-3.32 9.99-11.25 13.51-18.06 3.52-6.82 15.21-11.65 22.88-11.65h60.1c.16 3.67.24 7.36.24 11.07z" fill="#b15848"/><path d="m510.92 279.66c-1.29 14.07-3.71 27.81-7.19 41.12-4.99 19.12-12.13 37.38-21.17 54.48l-.56.33c-22.89 13.82-46.73 25.36-71.21 34.64h-1.06l1.89-86.52c.2-9.17 8.04-16.43 17.17-15.67.07 0 .14.01.21.01 6.97.64 14.38 2.77 20.68-.26 6.55-3.14 9.46-10.65 12.8-17.1 3.33-6.45 14.4-11.03 21.66-11.03z" fill="#a44e3e"/><g><path d="m420.004 375.24c0-.052.004-.103.004-.156 0-9.535-7.729-17.264-17.264-17.264-2.265 0-4.426.441-6.408 1.234-3.828-6.858-11.153-11.499-19.566-11.499-10.924 0-20.017 7.824-21.993 18.172-.589-.085-1.191-.131-1.803-.131-5.939 0-10.916 4.112-12.246 9.643h79.276z" fill="#fff"/><path d="m403.16 375.24c0-.03.002-.059.002-.09 0-5.483-4.444-9.927-9.927-9.927-1.302 0-2.545.253-3.685.709-2.201-3.944-6.413-6.612-11.251-6.612-6.282 0-11.51 4.499-12.646 10.449-.339-.048-.685-.075-1.037-.075-3.415 0-6.277 2.364-7.042 5.545h45.586z" fill="#dff7fd"/></g><g fill="#fff"><path d="m407.416 347.077c0 2.078-1.685 3.763-3.763 3.763s-3.763-1.685-3.763-3.763 1.685-3.763 3.763-3.763 3.763 1.685 3.763 3.763z"/><circle cx="383.319" cy="330.863" r="2.362"/><circle cx="407.416" cy="323.267" r="2.362"/></g><path d="m482.59 375.24c-10.35 19.62-23.16 37.74-38.04 53.92-17.91 19.49-38.81 36.19-61.95 49.38-37.35 21.3-80.57 33.46-126.6 33.46h-.83c-33.51-.11-65.5-6.65-94.79-18.46-36.19-14.57-68.27-37.18-94.05-65.6-14.4-15.88-26.84-33.57-36.91-52.7z" fill="#65b2fe"/><path d="m482.59 375.24c-10.35 19.62-23.16 37.74-38.04 53.92-17.91 19.49-38.81 36.19-61.95 49.38-37.35 21.3-80.57 33.46-126.6 33.46v-136.76z" fill="#159de4"/><path d="m436.393 359.077c-13.655.478-27.006 5.865-35.987 16.163h73.084c-9.679-9.645-23.442-16.641-37.097-16.163z" fill="#913d31"/><path d="m349.24 366.31c-16.794.588-33.213 7.213-44.258 19.877h89.881c-11.903-11.86-28.829-20.465-45.623-19.877z" fill="#b15848"/><path d="m368.776 402.601c-12.913.452-25.537 5.546-34.029 15.283h69.108c-9.152-9.12-22.166-15.736-35.079-15.283z" fill="#b6e337"/><path d="m149.379 402.601c-12.913.452-25.537 5.546-34.029 15.283h69.108c-9.152-9.12-22.166-15.736-35.079-15.283z" fill="#b6e337"/><path d="m394.181 406.863c-16.794.588-33.213 7.212-44.258 19.877h89.881c-11.904-11.86-28.829-20.465-45.623-19.877z" fill="#6cdc2d"/><path d="m114.667 406.863c-16.794.588-33.213 7.212-44.258 19.877h89.881c-11.903-11.86-28.829-20.465-45.623-19.877z" fill="#6cdc2d"/><path d="m382.6 478.54c-37.35 21.3-80.57 33.46-126.6 33.46h-.83c-33.51-.11-65.5-6.65-94.79-18.46 1.92-5.05 5.38-9.63 9.68-12.91 8.37-6.38 19.24-8.56 29.76-8.89 3.22-.1 6.51-.06 9.56-1.09s5.88-3.41 6.41-6.58c.53-3.2-1.4-6.4-4.02-8.3-3.2-2.32-8.23-2.16-8.91-6.68-.62-4.15 2.63-8.09 6.28-9.6 4.1-1.7 8.71-1.33 13.15-1.29 4.44.05 9.23-.38 12.61-3.25 2.56-2.18 3.96-5.65 3.62-9-.75-7.49-6.87-9.1-13.24-8.77-3.22.17-6.58.33-9.53-.97-2.94-1.31-5.29-4.59-4.41-7.69.67-2.33 2.89-3.86 5.11-4.83s4.63-1.6 6.57-3.05c3.22-2.43 4.3-7.12 2.91-10.83-1.6-4.27-6.08-5.29-10.17-5.92-3.18-.5-6.5-.88-9.25-2.55-2.36-1.43-3.81-3.78-3.83-6.1h67.47c-.53.91-.92 1.9-1.15 2.94-1.15 5.23 2.05 11.06 7.08 12.9 3.64 1.34 7.69.71 11.55 1.17s8.13 2.8 8.4 6.67c.4 5.74-7.81 8.57-8.95 14.21-.97 4.75 3.66 8.93 8.33 10.22 4.67 1.3 9.71.87 14.32 2.38 4.6 1.51 8.88 6.25 7.26 10.82-2.19 6.16-12.5 6.12-14.53 12.33-1.12 3.46 1.18 7.3 4.34 9.1s6.95 2.04 10.58 2.13c14.96.38 30.31-.84 44.52 3.82 8.05 2.64 15.73 7.86 20.7 14.61z" fill="#63dbfa"/><g><path d="m70.594 376.009c0-.052-.004-.103-.004-.155 0-9.531 7.726-17.257 17.257-17.257 2.264 0 4.424.44 6.406 1.233 3.827-6.856 11.149-11.495 19.558-11.495 10.92 0 20.009 7.82 21.985 18.165.589-.084 1.19-.13 1.803-.13 5.937 0 10.912 4.11 12.241 9.639z" fill="#fff"/><path d="m87.432 376.009c0-.03-.002-.059-.002-.089 0-5.481 4.443-9.923 9.923-9.923 1.302 0 2.544.253 3.683.709 2.201-3.942 6.411-6.61 11.246-6.61 6.279 0 11.506 4.497 12.642 10.445.339-.048.684-.075 1.036-.075 3.414 0 6.275 2.363 7.039 5.543z" fill="#dff7fd"/></g><path d="m98.664 325.312c0 2.434-1.973 4.407-4.407 4.407s-4.407-1.973-4.407-4.407 1.973-4.407 4.407-4.407 4.407 1.973 4.407 4.407z" fill="#fff"/><circle cx="79.056" cy="347.211" fill="#fff" r="2.361"/><circle cx="68.169" cy="326.416" fill="#fff" r="2.361"/><path d="m382.6 478.54c-37.35 21.3-80.57 33.46-126.6 33.46v-136.76h14.15c-.53.91-.92 1.9-1.15 2.94-1.15 5.23 2.05 11.06 7.08 12.9 3.64 1.34 7.69.71 11.55 1.17s8.13 2.8 8.4 6.67c.4 5.74-7.81 8.57-8.95 14.21-.97 4.75 3.66 8.93 8.33 10.22 4.67 1.3 9.71.87 14.32 2.38 4.6 1.51 8.88 6.25 7.26 10.82-2.19 6.16-12.5 6.12-14.53 12.33-1.12 3.46 1.18 7.3 4.34 9.1s6.95 2.04 10.58 2.13c14.96.38 30.31-.84 44.52 3.82 8.05 2.64 15.73 7.86 20.7 14.61z" fill="#3dcaea"/><path d="m107.682 372.328c-16.87.591-33.363 7.245-44.458 19.967h90.288c-11.958-11.915-28.96-20.558-45.83-19.967z" fill="#b15848"/><g><path d="m511.76 244.93h-50.13c1.33-5.52 6.29-9.62 12.22-9.62.61 0 1.21.04 1.8.13 1.97-10.33 11.04-18.14 21.94-18.14 4.42 0 8.54 1.28 12 3.5.66 4.81 1.18 9.67 1.57 14.56.27 3.17.46 6.36.6 9.57z" fill="#b6e337"/><path d="m511.76 244.93h-33.32c.76-3.17 3.62-5.53 7.03-5.53.35 0 .69.02 1.03.07 1.13-5.94 6.35-10.43 12.62-10.43 4.83 0 9.03 2.67 11.23 6.6.26-.1.53-.2.81-.28.27 3.17.46 6.36.6 9.57z" fill="#6cdc2d"/></g><g><path d="m35.59 244.84v.09h-35.35c.16-3.8.4-7.58.73-11.33 2.35-2.79 5.87-4.56 9.81-4.56 4.83 0 9.03 2.67 11.23 6.6 1.14-.45 2.38-.71 3.68-.71 5.47 0 9.9 4.44 9.9 9.91z" fill="#b6e337"/><path d="m25.93 244.88c0 .02 0 .03-.01.05h-25.68l.06-1.26c.74-1.16 2.04-1.92 3.51-1.92.2 0 .4.01.59.04.66-3.41 3.66-5.99 7.26-5.99 2.78 0 5.19 1.53 6.46 3.79.65-.26 1.36-.41 2.11-.41 3.15 0 5.7 2.55 5.7 5.7z" fill="#6cdc2d"/></g><g><path d="m197.501 175.532c.001-.099.007-.197.007-.296 0-18.14-14.706-32.846-32.846-32.846-4.31 0-8.421.839-12.192 2.348-7.284-13.049-21.22-21.878-37.225-21.878-20.785 0-38.084 14.885-41.844 34.574-1.121-.161-2.265-.248-3.431-.248-11.3 0-20.768 7.823-23.299 18.347h150.83z" fill="#ffeb98"/><path d="m165.453 175.532c0-.057.004-.113.004-.17 0-10.431-8.456-18.887-18.887-18.887-2.478 0-4.843.482-7.011 1.35-4.188-7.503-12.202-12.58-21.405-12.58-11.951 0-21.899 8.559-24.061 19.881-.645-.092-1.303-.143-1.973-.143-6.498 0-11.942 4.498-13.398 10.55h86.731z" fill="#f9e073"/></g><g><path d="m311.623 74.434c0-.081.006-.161.006-.243 0-14.898-12.077-26.975-26.975-26.975-3.539 0-6.916.689-10.013 1.928-5.982-10.716-17.427-17.967-30.571-17.967-17.069 0-31.276 12.224-34.364 28.394-.92-.132-1.861-.204-2.817-.204-9.281 0-17.056 6.424-19.134 15.067z" fill="#ffeb98"/><path d="m285.304 74.434c0-.047.003-.093.003-.14 0-8.567-6.944-15.511-15.511-15.511-2.035 0-3.977.396-5.758 1.108-3.44-6.162-10.021-10.331-17.579-10.331-9.815 0-17.985 7.029-19.76 16.327-.529-.076-1.07-.117-1.62-.117-5.337 0-9.808 3.694-11.003 8.664z" fill="#f9e073"/></g><g><path d="m298.875 161.272c0-.081-.006-.162-.006-.243 0-14.898 12.077-26.975 26.975-26.975 3.539 0 6.916.689 10.013 1.928 5.982-10.716 17.427-17.967 30.571-17.967 17.069 0 31.276 12.224 34.364 28.394.92-.132 1.861-.204 2.817-.204 9.281 0 17.056 6.424 19.134 15.067z" fill="#ffeb98"/><path d="m325.195 161.272c0-.047-.004-.093-.004-.14 0-8.567 6.945-15.511 15.511-15.511 2.035 0 3.977.396 5.758 1.109 3.44-6.162 10.021-10.331 17.579-10.331 9.815 0 17.985 7.029 19.76 16.327.529-.076 1.07-.117 1.62-.117 5.337 0 9.808 3.694 11.003 8.664h-71.227z" fill="#f9e073"/></g></g></g></svg>