<svg height="512" viewBox="0 0 60 60" width="512" xmlns="http://www.w3.org/2000/svg"><g id="049---Road-Works" fill="none"><g id="Layer_10" transform="translate(1 1)"><path id="Shape" d="m57.42 27.59-27-27c-.3751365-.37555409-.8841815-.58657331-1.415-.58657331s-1.0398635.21101922-1.415.58657331c-.52.53-.72.89-27 27-.37555409.3751365-.58657331.8841815-.58657331 1.415s.21101922 1.0398635.58657331 1.415l27 27c.3751365.3755541.8841815.5865733 1.415.5865733s1.0398635-.2110192 1.415-.5865733l27-27c.3755541-.3751365.5865733-.8841815.5865733-1.415s-.2110192-1.0398635-.5865733-1.415z" fill="#f57c00"/><path id="Shape" d="m53.92 27.59-26.66-26.66-26.67 26.66c-.37555409.3751365-.58657331.8841815-.58657331 1.415s.21101922 1.0398635.58657331 1.415l26.67 26.67 26.66-26.67c.3755541-.3751365.5865733-.8841815.5865733-1.415s-.2110192-1.0398635-.5865733-1.415z" fill="#ff9801"/><g fill="#393f4a"><circle id="Oval" cx="28" cy="14" r="3"/><path id="Shape" d="m32.28 40.74c-.0826857.3063299-.015089.6337228.1821587.882255.1972478.2485322.5007376.3887082.8178413.377745h6.34c.2623399-.0011046.5137394-.1052558.7-.29l5-5c.1956373-.1959047.3013005-.4641503.2918245-.7408502-.009476-.2766998-.1332432-.5370882-.3418245-.7191498l-5.54-4.79c-.3690019-.3033172-.9009981-.3033172-1.27 0-.9160558.6990339-1.7423053 1.5084897-2.46 2.41-1.07 1.86-3 4.96-3.72 7.87z"/><path id="Shape" d="m30 33.7c.07.41 0 0-1 7.55-.1380712 1.1045695-1.1454305 1.8880712-2.25 1.75s-1.8880712-1.1454305-1.75-2.25l.84-5.68c.0345584-.282299-.0527214-.5659585-.24-.78l-2.25-2.62c-.2661318-.3039541-.6890144-.4179163-1.0718406-.2888492s-.6503863.4758071-.6781594.8788492l-.6 8.86c-.0662742 1.1045695-1.0154305 1.9462742-2.12 1.88s-1.9462742-1.0154305-1.88-2.12c.59-8.88.49-10.88 2-14.28l-2.71-4.6c-.3397696-.5357013-.4052504-1.2008272-.1764697-1.7925016.2287808-.5916744.7246914-1.0397289 1.3364697-1.2074984l6.74-1.93c.9842414-.5338101 2.173564-.5251609 3.1499376.0229075.9763736.5480683 1.6031637 1.5588587 1.6600624 2.6770925 0 .1 0-.12 2.25 11.68.1854057.9540991-.3419657 1.9033676-1.25 2.25z"/></g></g><g id="Layer_2" fill="#000"><path id="Shape" d="m46.84 35.54-5.54-4.79c-.7194491-.6218356-1.777268-.6511033-2.53-.07-.6963681.5442903-1.339275 1.1537125-1.92 1.82l-3.85-1.45c-2-10.56-2-10.32-2-10.42-.066576-.6674028-.2855371-1.3106012-.64-1.88 1.5849445-.5583361 2.6519338-2.0477575 2.6707057-3.7280658.0187718-1.6803083-1.0146767-3.1931951-2.5867521-3.7868003-1.5720754-.5936053-3.347549-.1413488-4.4440627 1.1320113s-1.2802474 3.096293-.4598909 4.5628548c-3.84 1.22 4.77-1.22-7.34 2.19-.8948023.2565564-1.6198188.9139451-1.9624894 1.7794329-.3426705.8654879-.264169 1.8410116.2124894 2.6405671l2.49 4.15c-1.47 3.54-1.36 5.31-1.94 14.13-.1021726 1.6568542 1.1581458 3.0828272 2.815 3.1849999s3.0828273-1.1581457 3.185-2.8149999l.61-8.87 2.26 2.6-.87 5.7c-.2076295 1.0942586.2080588 2.2134796 1.0796501 2.9069064.8715912.6934267 2.0556077.8469103 3.0751971.3986366 1.0195895-.4482737 1.7069114-1.4245118 1.7851528-2.535543 1.08-8.14 1-6.9 1-7.11.6797929-.4641972 1.1389825-1.1873304 1.27-2l2.31.87c-1.5235058 2.2295171-2.6219445 4.7213456-3.24 7.35-.15622.6046736-.0210115 1.2476115.3655281 1.7381439.3865395.4905324.9800322.7723423 1.6044719.7618561h6.34c.5295768-.0022328 1.0366497-.2144122 1.41-.59l5-4.94c.3873305-.4002158.5902336-.9438161.5598649-1.4999414-.0303686-.5561253-.291258-1.0743991-.7198649-1.4300586zm-16.34-1.74h-.12c-.5122521.0510725-.9795814-.2950974-1.08-.8l-.25-1.31 2.19.82c.1579596.5184733-.1258775 1.0684078-.64 1.24zm-2.63 9.2c-.5416075-.067781-.9288081-.5573449-.87-1.1l.84-5.73c.0631311-.5531885-.107195-1.1076546-.47-1.53l-2.24-2.64c-.5296203-.6141843-1.3777097-.8477342-2.1470912-.5912737-.7693816.2564605-1.3077232.9521541-1.3629088 1.7612737l-.62 8.88c-.0203618.4065971-.2851781.7602638-.6696.8942622-.3844219.1339985-.8117031.0215773-1.0804-.2842622-.1658943-.1791781-.2555539-.4158795-.25-.66.66-9 .54-9.94 1.37-12.46.9201774.6340348 2.1234227.6807627 3.09.12l3.31 1.24c.14.17.05-.22.57 2.54.2426549 1.2684646 1.2698676 2.2392813 2.55 2.41l-.89 6.28c-.0323199.2661911-.170191.5082501-.38266.6718324s-.4817331.2349815-.74734.1981676zm-9.14-22 6.74-1.93.1-.05h.11c.6739763-.3549779 1.4810677-.3482458 2.1490287.0179256s1.1077322 1.0429603 1.1709713 1.8020744c0 .73.16.21-2.73 7.68l-1.45-.52c.3041975-.8343134.2121932-1.7617174-.25-2.52l-1-1.65 2.43-.7c.342975-.1000344.6065292-.3754449.6913844-.7224871s-.0218802-.7129922-.28-.96c-.2581198-.2470079-.6284094-.3375473-.9713844-.2375129l-3.63 1c-.27547.0700458-.5081167.2540078-.6397903.5059051-.1316735.2518972-.1499313.5479263-.0502097.8140949.0172637.0589799.040728.1159647.07.17 1.81 2.99 1.92 3 1.81 3.55-.1013055.3877662-.4243384.6775912-.8207807.7364041-.3964423.0588128-.7897029-.1247488-.9992193-.4664041l-3-5c-.1788754-.2648898-.2203486-.5993274-.1115939-.8998859s.3546324-.5310205.6615939-.6201141zm12.06 9.19-2.18-.82-.18-.94 1.35-3.43c.44 2.26.22 1 1.01 5.23zm-1.79-17.19c1.1045695 0 2 .8954305 2 2s-.8954305 2-2 2-2-.8954305-2-2 .8954305-2 2-2zm11.59 29h-6.34c1.46-5.9 4.5-8.77 5.74-9.73l5.54 4.79z"/><path id="Shape" d="m59.12 27.88-27-27c-1.1712702-1.16981351-3.0687298-1.16981351-4.24 0l-27 27c-1.16981351 1.1712702-1.16981351 3.0687298 0 4.24l27 27c1.1712702 1.1698135 3.0687298 1.1698135 4.24 0l27-27c1.1698135-1.1712702 1.1698135-3.0687298 0-4.24zm-1.41 2.83-27 27c-.1877666.1893127-.4433625.2957983-.71.2957983s-.5222334-.1064856-.71-.2957983l-27-27c-.18931265-.1877666-.29579832-.4433625-.29579832-.71s.10648567-.5222334.29579832-.71l27-27c.1877666-.18931265.4433625-.29579832.71-.29579832s.5222334.10648567.71.29579832l27 27c.1893127.1877666.2957983.4433625.2957983.71s-.1064856.5222334-.2957983.71z"/></g></g></svg>